<?xml version="1.0" encoding="utf-8"?>
<!-- Generator: Adobe Illustrator 28.0.0, SVG Export Plug-In . SVG Version: 6.00 Build 0)  -->
<svg version="1.1" id="Layer_1" xmlns="http://www.w3.org/2000/svg" xmlns:xlink="http://www.w3.org/1999/xlink" x="0px" y="0px"
	 viewBox="0 0 99.6 65.2" style="enable-background:new 0 0 99.6 65.2;" xml:space="preserve">
<style type="text/css">
	.st0{fill:#FFFFFF;}
	.st1{fill:#EE8B22;}
	.st2{fill:#333668;}
	.st3{fill:#040507;}
</style>
<path class="st0" d="M99.6,31.7L99.6,31.7c0-1.6-1.5-2.9-3.6-3.5l-2.6,1.5L93.3,30l-0.8,0.7c0,0,1.3-10.3-11-20.2
	c0,0-15.4-12.4-43.5-10.3C26.4,1.5-10.7,12,3,43.2c14.4,23.6,46.5,22,46.5,22s44.9,1.3,50.2-33.9L99.6,31.7z"/>
<path class="st1" d="M86.3,32.1c-0.8,5-6.7,24.8-48.5,22.8C17.2,52.8,1.1,38.4,8,23C15,7.7,40.9,1.8,53.4,3.5
	c9.8-0.1,38.1,6.6,39.1,27.2c0,0,1.3-10.3-11-20.2c0,0-15.4-12.4-43.5-10.3C26.4,1.5-10.6,12.1,3,43.2c14.4,23.6,46.5,22,46.5,22
	s44.9,1.3,50.1-33.9c-1.1,3.7-5.4,24.1-35.3,26.9c14.8-7.1,22.8-15.8,22.2-25.9L86.3,32.1z"/>
<path class="st1" d="M88.2,34.5c-1.2-0.7-2-1.7-2-2.8h0.3c0,1,0.7,1.9,1.8,2.5c1.1,0.7,2.8,1.1,4.5,1.1c1.8,0,3.4-0.4,4.5-1.1
	c1.1-0.7,1.8-1.6,1.8-2.5c0-1.3-1.4-2.6-3.4-3.2l0.1-0.3c2.1,0.7,3.6,1.9,3.6,3.5c0,1.1-0.8,2.1-2,2.8c-1.2,0.7-2.9,1.1-4.7,1.1
	C91.1,35.7,89.4,35.2,88.2,34.5"/>
<path class="st1" d="M91.3,31.6c-0.3-0.2-0.6-0.5-0.6-0.8H91c0,0.2,0.1,0.4,0.4,0.6c0.3,0.2,0.7,0.3,1.1,0.3c0.4,0,0.8-0.1,1.1-0.3
	c0.3-0.2,0.4-0.4,0.4-0.6c0-0.2-0.3-0.6-0.8-0.7l0.1-0.3c0.6,0.2,1,0.5,1,1c0,0.4-0.2,0.6-0.6,0.8c-0.3,0.2-0.8,0.3-1.3,0.3
	C92.1,31.9,91.6,31.8,91.3,31.6"/>
<rect x="26.3" y="22" class="st2" width="3.8" height="10"/>
<path class="st2" d="M44.8,27.8v-0.2c0-1.8-0.6-3.2-1.7-4.2c-1.1-1-2.7-1.5-4.6-1.5h-0.1c-1.9,0-3.4,0.5-4.6,1.4
	c-1.1,0.9-1.7,2.2-1.7,3.8c0,1.5,0.6,2.7,1.7,3.7c1.1,0.9,2.6,1.4,4.5,1.4h0.1c1.7,0,3-0.3,4-0.8c1-0.5,1.7-1.3,2-2.3h-3.9
	c-0.1,0.2-0.6,0.8-0.8,0.9c-0.3,0.1-0.7,0.3-1.1,0.3h-0.2c-0.7-0.1-1.4-0.3-1.8-0.8c-0.3-0.4-0.5-0.9-0.5-1.5h2.3H44.8z M36.1,25.9
	c0-0.6,0.2-1,0.6-1.3c0.4-0.3,0.9-0.5,1.6-0.5h0c0.7,0,1.3,0.2,1.6,0.5c0.4,0.3,0.6,0.7,0.7,1.3h-2.3H36.1z"/>
<path class="st2" d="M46.4,22.3h3.8v1.9c0.3-0.8,0.7-1.3,1.2-1.7c0.5-0.3,1.2-0.5,2.1-0.5h0.8v3c-0.2,0-0.8,0-0.9,0
	c-0.2,0-0.3,0-0.4,0c-0.8,0-1.5,0.2-1.8,0.6c-0.4,0.4-0.6,1-0.6,1.8v4.5h-4.2V22.3z"/>
<path class="st2" d="M56.1,22.3h3.8v1.9c0.3-0.8,0.7-1.3,1.2-1.7c0.5-0.3,1.2-0.5,2.1-0.5H64v3c-0.2,0-0.8,0-0.9,0
	c-0.2,0-0.3,0-0.4,0c-0.8,0-1.5,0.2-1.8,0.6c-0.4,0.4-0.6,1-0.6,1.8v4.5h-4.2V22.3z"/>
<path class="st2" d="M77.5,31.4c-0.1-0.2-0.1-0.3-0.1-0.5v-5.5c0-0.8-0.1-1.3-0.3-1.7c-0.2-0.4-0.6-0.8-1.1-1.1
	c-0.4-0.2-1-0.5-1.8-0.6c-0.8-0.2-1.6-0.3-2.5-0.3h-0.2c-1.9,0-3.3,0.3-4.3,0.9c-1,0.6-1.5,1.4-1.5,2.5h3.9c0-0.3,0.5-0.7,0.7-0.8
	c0.2-0.2,0.7-0.3,1.2-0.3h0c0.5,0,1.1,0.1,1.3,0.2c0.2,0.1,0.6,0.3,0.7,0.7c0.1,0.2,0.1,0.4,0.1,0.8h-2.1h-0.8h-1.3
	c-2.1,0.1-2.7,0.5-3.3,1.1c-0.7,0.6-0.9,1.4-0.9,2.4c0,1,0.5,1.7,1.2,2.3c0.7,0.6,1.5,0.8,2.8,0.8c0.8,0,1.5-0.2,2.2-0.3l0.1,0
	c0.8-0.2,1.7-0.7,2.5-1.3V32h3.9v-0.3C77.7,31.6,77.6,31.5,77.5,31.4z M73.3,29c-0.2,0.4-0.7,1-1.8,1h-0.2c-1.2,0-2-0.4-2-1.2
	c0-0.5,0.6-1.1,1.2-1.3c0.2-0.1,0.5-0.1,0.9-0.1c0.9,0,2.1,0,2.1,0S73.5,28.6,73.3,29z"/>
<path class="st1" d="M29.5,20c-0.4,0-0.8,0.1-1.2,0.1v0.9c0.3,0,0.7,0,1,0C29.4,20.6,29.5,20.3,29.5,20"/>
<path class="st1" d="M28.3,16.7v0.8c0.3,0,0.7,0,1,0c-0.1-0.3-0.2-0.5-0.4-0.7C28.7,16.8,28.5,16.8,28.3,16.7"/>
<path class="st1" d="M27.1,17.5c0.3,0,0.7,0.1,1,0.1v-0.8c-0.2,0-0.4,0-0.6,0.1C27.3,17,27.2,17.3,27.1,17.5"/>
<path class="st1" d="M28.1,18.7v-1c-0.4,0-0.7,0-1.1-0.1c-0.1,0.3-0.2,0.6-0.2,1C27.2,18.7,27.7,18.7,28.1,18.7"/>
<path class="st1" d="M25.9,18.5c0.2,0,0.5,0.1,0.8,0.1c0-0.3,0.1-0.7,0.2-1c-0.2,0-0.4,0-0.5-0.1C26.1,17.9,26,18.2,25.9,18.5"/>
<path class="st1" d="M30.1,17.6c-0.2,0-0.3,0-0.5,0.1c0.1,0.3,0.2,0.6,0.2,1c0.3,0,0.5-0.1,0.8-0.1C30.4,18.2,30.3,17.9,30.1,17.6"
	/>
<path class="st1" d="M28.3,18.7c0.4,0,0.9,0,1.3-0.1c0-0.3-0.1-0.7-0.2-1c-0.4,0-0.7,0-1.1,0.1V18.7z"/>
<path class="st1" d="M28.1,20.9V20c-0.4,0-0.8,0-1.2-0.1c0.1,0.3,0.2,0.6,0.3,0.9C27.5,20.9,27.8,20.9,28.1,20.9"/>
<path class="st1" d="M28.3,19.9c0.5,0,0.9,0,1.3-0.1c0-0.2,0.1-0.5,0.1-0.7l0-0.3c-0.4,0-0.9,0.1-1.3,0.1V19.9z"/>
<path class="st1" d="M28.1,18.9c-0.5,0-0.9,0-1.3-0.1l0,0.3c0,0.2,0,0.5,0.1,0.7c0.4,0,0.8,0.1,1.3,0.1V18.9z"/>
<path class="st1" d="M27.1,21c-0.1,0-0.2,0-0.3,0c0.2,0.1,0.3,0.2,0.5,0.3L27.1,21z"/>
<path class="st1" d="M29.7,19.9c-0.1,0.3-0.2,0.6-0.3,0.9c0.2,0,0.3,0,0.5,0c0.3-0.3,0.5-0.6,0.6-1C30.3,19.9,30,19.9,29.7,19.9"/>
<path class="st1" d="M29.8,19.1c0,0.2,0,0.4-0.1,0.7c0.3,0,0.6-0.1,0.8-0.1c0-0.2,0.1-0.3,0.1-0.5c0-0.1,0-0.3,0-0.4
	c-0.2,0-0.5,0.1-0.8,0.1L29.8,19.1z"/>
<path class="st1" d="M25.9,19.7c0.2,0,0.5,0.1,0.8,0.1c0-0.2-0.1-0.4-0.1-0.7l0-0.3c-0.3,0-0.6-0.1-0.8-0.1c0,0.1,0,0.3,0,0.4
	C25.8,19.3,25.9,19.5,25.9,19.7"/>
<path class="st1" d="M26.9,17.5c0.1-0.2,0.2-0.4,0.3-0.6c-0.3,0.1-0.5,0.3-0.7,0.5C26.6,17.5,26.8,17.5,26.9,17.5"/>
<path class="st1" d="M29.5,17.5c0.2,0,0.3,0,0.5,0c-0.2-0.2-0.5-0.4-0.7-0.5C29.3,17.1,29.4,17.3,29.5,17.5"/>
<path class="st1" d="M28.1,21.1c-0.3,0-0.6,0-0.9,0c0.1,0.1,0.1,0.3,0.2,0.4c0.2,0.1,0.4,0.1,0.6,0.1V21.1z"/>
<path class="st1" d="M27,20.8c-0.1-0.3-0.2-0.6-0.3-0.9c-0.3,0-0.5-0.1-0.8-0.1c0.1,0.4,0.3,0.7,0.6,1C26.7,20.8,26.8,20.8,27,20.8"
	/>
<path class="st1" d="M29.2,21c-0.3,0-0.6,0-0.9,0v0.4c0.2,0,0.5,0,0.7-0.1C29,21.3,29.1,21.2,29.2,21"/>
<path class="st1" d="M29.4,21l-0.1,0.3c0.2-0.1,0.3-0.2,0.5-0.3C29.6,21,29.5,21,29.4,21"/>
<path class="st3" d="M30.2,38.7C30,38.8,29.6,38.9,29,39c-0.2,0-0.3,0-0.4,0.1c-0.3,0.1-0.5,0.1-0.7,0.3c-0.1,0.1-0.2,0.3-0.2,0.6
	c0,0.3,0.1,0.4,0.2,0.6c0.2,0.1,0.4,0.2,0.7,0.2c0.5,0,0.8-0.1,1.1-0.3c0.3-0.2,0.4-0.5,0.4-0.9V38.7z M30.3,40.6
	c-0.3,0.3-0.5,0.5-0.8,0.6c-0.3,0.1-0.6,0.2-1,0.2c-0.5,0-0.9-0.1-1.2-0.4c-0.3-0.3-0.4-0.6-0.4-1.1c0-0.5,0.1-0.8,0.4-1.1
	c0.3-0.3,0.7-0.4,1.3-0.5c0.1,0,0.4,0,0.6-0.1c0.4,0,0.7-0.1,0.8-0.1l0.2-0.1c0-0.1,0.1-0.2,0.1-0.4c0-0.3-0.1-0.5-0.3-0.6
	c-0.2-0.1-0.5-0.2-0.9-0.2c-0.4,0-0.7,0.1-0.9,0.2c-0.2,0.2-0.3,0.4-0.3,0.7h-0.8v0c0-0.5,0.2-0.9,0.5-1.2c0.4-0.3,0.9-0.4,1.5-0.4
	c0.7,0,1.2,0.1,1.5,0.4c0.3,0.3,0.5,0.7,0.5,1.2v2.5c0,0.2,0,0.4,0.1,0.4c0,0.1,0.1,0.1,0.3,0.1l0.1,0l0.1,0v0.7l-0.3,0.1l-0.2,0
	c-0.3,0-0.5-0.1-0.6-0.2C30.3,41.1,30.3,40.9,30.3,40.6L30.3,40.6z"/>
<path class="st3" d="M40.4,38.7c0,0.6,0.1,1.1,0.4,1.5c0.3,0.3,0.6,0.5,1.1,0.5c0.5,0,0.8-0.2,1.1-0.5c0.3-0.3,0.4-0.8,0.4-1.4
	c0-0.6-0.1-1.1-0.4-1.5c-0.3-0.3-0.6-0.5-1.1-0.5c-0.5,0-0.9,0.2-1.1,0.5C40.5,37.6,40.4,38.1,40.4,38.7 M39.6,41.3v-7h0.8v2.6
	c0.2-0.3,0.4-0.5,0.7-0.7c0.3-0.1,0.6-0.2,0.9-0.2c0.7,0,1.2,0.2,1.6,0.7c0.4,0.5,0.6,1.2,0.6,2c0,0.8-0.2,1.5-0.6,2
	c-0.4,0.5-0.9,0.7-1.6,0.7c-0.4,0-0.7-0.1-0.9-0.2c-0.3-0.1-0.5-0.3-0.7-0.6v0.6H39.6z"/>
<rect x="52.3" y="34.5" class="st3" width="0.9" height="7"/>
<path class="st3" d="M62,38.3h2.8c0-0.5-0.1-0.8-0.4-1.1c-0.2-0.3-0.6-0.4-1-0.4c-0.4,0-0.8,0.1-1,0.4C62.1,37.4,62,37.8,62,38.3
	 M64.7,39.7h0.8c-0.1,0.6-0.3,1-0.7,1.3c-0.4,0.3-0.9,0.5-1.5,0.5c-0.7,0-1.3-0.2-1.7-0.7c-0.4-0.5-0.6-1.1-0.6-1.9
	c0-0.9,0.2-1.5,0.6-2c0.4-0.5,1-0.7,1.7-0.7c0.7,0,1.3,0.2,1.7,0.7c0.4,0.5,0.6,1.1,0.6,1.9l0,0.2l0,0.1H62c0,0.5,0.1,0.9,0.4,1.2
	c0.3,0.3,0.6,0.4,1.1,0.4c0.3,0,0.6-0.1,0.9-0.3C64.5,40.2,64.7,40,64.7,39.7"/>
<path class="st3" d="M73.7,39.7h0.8c0,0.3,0.2,0.6,0.4,0.8c0.2,0.2,0.5,0.3,0.9,0.3c0.4,0,0.7-0.1,0.9-0.2c0.2-0.1,0.3-0.3,0.3-0.6
	c0-0.2-0.1-0.3-0.2-0.4c-0.1-0.1-0.3-0.2-0.6-0.3l-1-0.2c-0.5-0.1-0.9-0.3-1.1-0.5c-0.2-0.2-0.3-0.5-0.3-0.9c0-0.5,0.2-0.8,0.5-1.1
	c0.3-0.3,0.8-0.4,1.4-0.4c0.6,0,1.1,0.1,1.4,0.4c0.4,0.3,0.5,0.7,0.5,1.1v0h-0.8c0-0.3-0.1-0.5-0.3-0.6c-0.2-0.1-0.5-0.2-0.8-0.2
	s-0.6,0.1-0.8,0.2c-0.2,0.1-0.3,0.3-0.3,0.5c0,0.2,0.1,0.3,0.2,0.4c0.1,0.1,0.3,0.2,0.6,0.2l0.8,0.2c0.6,0.1,1,0.3,1.2,0.5
	c0.2,0.2,0.3,0.5,0.3,0.9c0,0.5-0.2,0.9-0.6,1.2c-0.4,0.3-0.9,0.4-1.6,0.4c-0.7,0-1.2-0.2-1.5-0.5C73.9,40.7,73.7,40.2,73.7,39.7"/>
<path class="st2" d="M14.2,28.7h3.8c0,0.4,0.1,0.7,0.3,0.9c0.2,0.2,0.5,0.3,1,0.3c0.4,0,0.7-0.1,0.9-0.2c0.2-0.1,0.3-0.3,0.3-0.6
	c0-0.4-0.5-0.7-1.5-0.9l-0.2,0c-1.9-0.4-3.1-0.8-3.6-1.2c-0.6-0.4-0.8-1.1-0.8-1.9c0-1,0.4-1.8,1.2-2.3c0.8-0.5,2-0.8,3.6-0.8
	c1.5,0,2.6,0.2,3.4,0.7c0.8,0.5,1.3,1.2,1.4,2.2h-3.5c0-0.3-0.2-0.5-0.4-0.7c-0.2-0.2-0.5-0.3-0.9-0.3c-0.3,0-0.6,0.1-0.8,0.2
	c-0.2,0.1-0.3,0.3-0.3,0.5c0,0.4,0.4,0.7,1.3,0.8c0.2,0,0.4,0.1,0.5,0.1c1.8,0.4,3,0.8,3.5,1.3c0.5,0.4,0.8,1.1,0.8,2
	c0,1.1-0.4,1.9-1.3,2.5C22.3,31.7,21,32,19.3,32c-1.6,0-2.8-0.3-3.7-0.8C14.8,30.6,14.3,29.8,14.2,28.7"/>
<path class="st3" d="M17.9,37.8c0-0.4-0.2-0.6-0.4-0.8c-0.2-0.2-0.5-0.3-0.9-0.3c-0.5,0-0.8,0.2-1.1,0.5c-0.3,0.3-0.4,0.8-0.4,1.5
	c0,0.6,0.1,1.1,0.4,1.5c0.2,0.3,0.6,0.5,1.1,0.5c0.4,0,0.7-0.1,1-0.3c0.2-0.2,0.4-0.5,0.5-0.9h0.8c0,0.6-0.3,1.1-0.7,1.5
	c-0.4,0.4-0.9,0.5-1.6,0.5c-0.7,0-1.3-0.2-1.7-0.7c-0.4-0.5-0.6-1.2-0.6-2c0-0.9,0.2-1.5,0.6-2c0.4-0.5,1-0.7,1.7-0.7
	c0.7,0,1.2,0.2,1.6,0.5c0.4,0.3,0.6,0.8,0.6,1.4H17.9z"/>
</svg>
