<?xml version="1.0" encoding="UTF-8"?>
<svg id="Layer_1" xmlns="http://www.w3.org/2000/svg" version="1.1" viewBox="0 0 3000 3000">
  <!-- Generator: Adobe Illustrator 30.0.0, SVG Export Plug-In . SVG Version: 2.1.1 Build 123)  -->
  <defs>
    <style>
      .st0 {
        fill: #192a55;
      }

      .st1 {
        fill: #ba2029;
      }
    </style>
  </defs>
  <g>
    <path class="st0" d="M1906.03,1465.23v87.89h-145.02l-3.76,4.39c-.09,1.19,2.3,2.2,2.3,2.93v391.11h-108.4v-398.44h-149.41v-87.89h404.3Z"/>
    <polygon class="st1" points="1282.01 1465.23 1282.01 1553.13 1147.24 1553.13 1147.24 1951.56 1038.85 1951.56 1037.38 1553.13 904.08 1553.13 904.08 1465.23 1282.01 1465.23"/>
    <g>
      <path class="st0" d="M2245.88,1796.29h-260.74c5.33,59.37,37.89,98.11,101.08,90.83,28.02-3.23,43.24-20.58,55.66-43.96h95.21c-18.92,80.73-97.58,124.12-177.35,123.22-238.93-2.69-244.85-414.68,35.21-389.78,78.2,6.95,150.93,83.73,150.93,162.55v57.13ZM2143.34,1734.77c.34-113.32-155.19-112.64-155.27,0h155.27Z"/>
      <path class="st0" d="M2656.03,1708.4h-102.54c-23.77-81.87-123.42-69.21-144.37,9.43-11.84,44.44-10.39,139.34,39.82,161.04,50.35,21.76,92.9-.57,104.55-53.28h99.61c-20.32,103.59-110.44,151.48-211.54,133.9-199.13-34.63-188.24-362.32,14.14-382.57,97.98-9.8,179.02,31.44,200.33,131.48Z"/>
    </g>
    <g>
      <rect class="st1" x="1343.53" y="1597.07" width="93.75" height="354.49"/>
      <rect class="st1" x="1343.53" y="1465.23" width="93.75" height="87.89"/>
    </g>
  </g>
  <g>
    <g>
      <path class="st0" d="M386.42,1944.79c-16.49-15.1-10.54-106.1-2.31-127.94,15.14-40.16,55.07-18.33,67.37-29.31l48.32-114.3c11.03,1.37,14.19,14.41,25.5,16.96,22.73,5.12,56.09-3.32,80.62,3,41.73-9.25,8.34-58.99,56.61-61.05,18.88-.81,26.28,5.8,34.1,21.49,20.68,41.51,30.82,95.23,53.6,136.83,7.73,6.87,38.27-.75,54.02,7.51,8.71,4.57,20.3,20.6,22.36,30.38,3.57,16.96,3.55,80.19,1.04,98.04-1.5,10.69-7.98,22-19.39,24.55-20.97,4.69-63.27-.22-87.39.5-93.19,2.78-213.22,11.47-304.68,3.17-8-.73-23.97-4.52-29.75-9.82Z"/>
      <path class="st1" d="M620.57,1253.64l47.55,15.41,37.74-25.86c6.84.64,48.2,38.57,50.57,46.21,4.12,13.27-17.73,32.45-23.82,44.17l19.81,51.89,51.38,10.14c5.38,5.3,4.99,68.32.36,72.27-10.62,1.28-46.97.25-52.22,7.85.29,14.04-20.54,39.43-20.53,49.61.02,13.04,28.51,32.97,25.87,43.33-.85,3.35-35.85,41.17-40.94,44.45-16.69,10.75-37.4-22.76-50.25-21.43l-45.52,14.86-12.53,54.86-71.04-2.74-15.54-53.1-46.5-14.37c-9.85,1-26.34,30.02-40.47,26.01-4.19-1.19-48.37-42.09-50.45-46.53-6.69-14.24,23.39-33.82,27.38-47.72l-19.85-50.55-48.69-6.97c-1.97-2.8-2.54-63.41-.81-68.53,4.32-12.83,37.7-5.84,48.91-8.22l20.87-53.87c-4.95-14.26-30.43-27.67-25.79-43.2,1.53-5.1,38.83-45.5,43.51-47.63,12.34-5.61,35.25,23.79,47.7,27.48l45.27-17.83,10.01-51.51,69.9-5.04,18.12,56.58ZM660.12,1431.02c0-48.92-39.66-88.57-88.57-88.57s-88.57,39.66-88.57,88.57,39.66,88.57,88.57,88.57,88.57-39.66,88.57-88.57Z"/>
    </g>
    <g>
      <path class="st0" d="M736.22,1194.82c-4.58,4.12-17.18,7.69-24.11,12.52-13.42,9.37-30.25,27.51-46.38,26.26-39.32-3.06-29.16-21.57-43.38-44.74-15.12-24.64-30.73-19.39-55.17-17.99-2.51.14-3.54,4.3-2.9-2.94,31.13-53.17,58.11-109.15,90.27-161.7,16.76-27.39,21.64-41.41,52.19-56.21,52.8-25.58,102.95-33.1,146.1,14.2,69.83,76.56,8.67,185.43-89.44,186.01-4.99,3-19.56,37.73-27.18,44.58ZM740.92,1077.59c37.36,31.85,95.92-16.79,64.81-63.33-23.23-34.75-87.69-20.05-83.16,27.28.84,8.73,11.83,30.5,18.35,36.05Z"/>
      <path class="st0" d="M1146.22,953.56c6.85,6.77,29.55,34.83,31.92,42.79,3.18,10.71-1.21,23.37,2.86,32.3,1.8,3.96,51.55,54.48,59.86,63.09,9.14,9.46,58.62,61.62,64.65,64.35,11.91,5.39,26.02-1.11,36.56-.81,18.92.54,40.75,7.83,55.59,19.98,11.14,9.12,55.25,78.05,60.27,92.05s1.22,39.57-16.26,39.49c-15.94-.07-53.42-48.15-71.07-54.68-39.82-14.72-76.97,23.93-66.69,63.77,5.73,22.22,42.27,47.64,53.79,69.2-7.62,24.3-35.24,27.54-54.91,13.94-17.5-12.11-84.46-84.48-90.25-103.11-6.66-21.41-1.41-43.3-5.29-65.02l-104.02-118.79c-31.85,3.83-58.08,3.64-85.88-13.57-8.27-5.12-17.39-16.61-26.22-20.65-25.44-11.62-51.84.08-78.26-2.34,13.54-35.63,9.3-66.79-8.79-99.54,44.33-10.95,87.68-36.61,130.27-49.94,45.16-14.13,78.38-5.57,111.86,27.49ZM1100.22,1015.14c0-19.86-16.1-35.97-35.97-35.97s-35.97,16.1-35.97,35.97,16.1,35.97,35.97,35.97,35.97-16.1,35.97-35.97ZM1307.42,1227.37c0-16.49-13.37-29.86-29.86-29.86s-29.86,13.37-29.86,29.86,13.37,29.86,29.86,29.86,29.86-13.37,29.86-29.86Z"/>
    </g>
  </g>
  <rect class="st0" x="400.17" y="2039.45" width="2258.79" height="41.02"/>
</svg>